<svg fill="none" height="100%" width="100%" viewBox="0 0 93 92"  xmlns="http://www.w3.org/2000/svg"><path d="m1.25281.570923h90.5618v90.5618h-90.5618z" fill="#fff" stroke="#c4cfe3"/><path d="m29.6242 30.9451c-.4339 0-.7991.1524-.9825.4507-.1899.3081-.1605.7048.0409 1.1063l4.8715 8.4404c.0082.0164.0082.0262 0 .041l-7.6551 13.521c-.1998.3983-.19.7982 0 1.1063.1834.2966.5076.4917.9415.4917h7.2048c1.0775 0 1.5966-.7277 1.965-1.3931 0 0 7.4864-13.2523 7.7779-13.7669-.0295-.0475-4.9533-8.6453-4.9533-8.6453-.3586-.6391-.9006-1.3521-2.0059-1.3521z" fill="#005a5f"/><path d="m59.8935 21.0709c-1.0758 0-1.5425.6786-1.929 1.3735 0 0-15.5214 27.5501-16.0323 28.4548.0262.0491 10.2373 18.7983 10.2373 18.7983.357.6392.9088 1.3734 2.0125 1.3734h7.1966c.434 0 .7729-.1639.9563-.4605.1916-.3081.1867-.7146-.0147-1.1145l-10.1572-18.5738c-.0098-.0148-.0098-.0328 0-.0475l15.9521-28.2303c.1998-.3983.2047-.8047.0148-1.1128-.1834-.2967-.524-.4606-.9579-.4606z" fill="#d4d600"/></svg>